<svg width="currentWidth" height="currentHeight" viewBox="0 0 254 274" fill="none" xmlns="http://www.w3.org/2000/svg">
<path d="M59.208 145.021L2.34928 168.137C0.989284 171.949 0.190667 175.967 0 180.06L69.2107 151.921C66.2187 149.123 62.8427 146.803 59.208 145.021Z" fill="#1A1818"></path>
<path d="M72.6849 155.592L0.0742188 185.114C0.335552 188.495 1.02224 191.891 2.16491 195.231L78.2462 164.299C76.7356 161.11 74.8569 158.198 72.6849 155.592Z" fill="#1A1818"></path>
<path d="M25.5971 143.839C16.5771 147.506 9.57178 154.014 5.17578 161.906L52.8331 142.53C44.1771 139.946 34.6171 140.172 25.5971 143.839Z" fill="#1A1818"></path>
<path d="M56.5824 220.052C65.6024 216.386 72.6077 209.878 77.005 201.986L29.3477 221.362C38.0037 223.947 47.5624 223.72 56.5824 220.052Z" fill="#1A1818"></path>
<path d="M80.0188 168.661L3.9375 199.593C5.4495 202.782 7.32686 205.694 9.50019 208.299L82.1109 178.778C81.8482 175.397 81.1628 172.001 80.0188 168.661Z" fill="#1A1818"></path>
<path d="M79.8327 195.754C81.194 191.942 81.9927 187.924 82.1833 183.831L12.9727 211.97C15.9647 214.768 19.3407 217.088 22.9753 218.87L79.8327 195.754Z" fill="#1A1818"></path>
<path d="M138.227 52.1001L173.92 0.000110752L172.173 63.1308L231.675 41.9614L193.153 92.0081L253.733 109.855L193.153 127.701L231.675 177.749L172.173 156.579L173.92 219.709L138.227 167.608L102.532 219.709L104.28 156.579L44.7788 177.749L83.2988 127.701L22.7188 109.855L83.2988 92.0081L44.7788 41.9614L104.28 63.1308L102.532 0.000110752L138.227 52.1001Z" fill="#F57C2D"></path>
<path d="M204.688 262.988L212.893 261.388L204.688 259.788L209.411 252.573L202.528 257.524L201.001 248.922L199.475 257.524L192.592 252.573L197.315 259.788L189.109 261.388L197.315 262.988L192.592 270.202L199.475 265.252L201.001 273.853L202.528 265.252L209.411 270.202L204.688 262.988Z" fill="#9EB4FF"></path>
</svg>